<?xml version="1.0" standalone="no"?>
<!DOCTYPE svg PUBLIC "-//W3C//DTD SVG 20010904//EN"
 "http://www.w3.org/TR/2001/REC-SVG-20010904/DTD/svg10.dtd">
<svg version="1.0" xmlns="http://www.w3.org/2000/svg"
 width="2774.000000pt" height="2250.000000pt" viewBox="0 0 2774.000000 2250.000000"
 preserveAspectRatio="xMidYMid meet">
<metadata>
Created by potrace 1.16, written by Peter Selinger 2001-2019
</metadata>
<g transform="translate(0.000000,2250.000000) scale(0.100000,-0.100000)"
fill="#000000" stroke="none">
<path d="M14520 22496 c0 -3 71 -147 157 -321 l157 -314 -23 -216 c-13 -118
-22 -217 -20 -220 6 -6 181 -27 185 -22 2 2 15 102 29 221 l25 218 208 250
c228 275 246 297 241 302 -5 5 -175 26 -205 26 -15 0 -60 -49 -163 -180 -79
-99 -146 -180 -150 -180 -5 0 -52 94 -106 209 l-99 209 -45 6 c-98 12 -191 19
-191 12z"/>
<path d="M13350 22483 l-36 -4 -187 -527 c-103 -290 -187 -530 -187 -534 0
-10 121 -9 175 0 l39 7 36 112 c19 61 38 115 42 119 7 6 327 33 405 34 32 0
35 -4 89 -112 31 -62 57 -114 58 -115 3 -4 208 15 212 20 3 3 -111 231 -253
506 l-258 501 -50 -2 c-27 -1 -66 -3 -85 -5z m150 -433 c48 -105 79 -185 74
-189 -5 -5 -72 -12 -148 -16 -132 -7 -139 -6 -134 11 24 90 114 374 119 374 3
0 43 -81 89 -180z"/>
<path d="M12535 22391 c-75 -16 -80 -19 -78 -42 1 -13 31 -170 68 -348 69
-340 71 -360 34 -432 -25 -50 -70 -86 -131 -104 -95 -28 -160 -14 -223 49 -54
55 -60 73 -136 451 -34 171 -63 311 -65 313 -1 2 -43 -5 -93 -14 -82 -16 -91
-20 -91 -40 0 -12 31 -172 69 -357 76 -367 90 -409 168 -488 189 -194 571
-128 689 119 22 46 28 74 31 147 4 80 -3 126 -65 425 -50 245 -72 335 -83 337
-8 0 -50 -7 -94 -16z"/>
<path d="M16125 21724 c-198 -234 -360 -431 -360 -436 0 -8 171 -67 196 -68 3
0 40 45 83 99 43 55 83 98 89 96 7 -2 98 -30 202 -61 105 -31 195 -60 201 -65
6 -5 14 -51 18 -102 12 -163 3 -148 117 -181 55 -16 102 -27 104 -24 5 4 -104
979 -121 1089 -5 35 -7 37 -77 58 -40 11 -76 21 -82 21 -5 0 -172 -192 -370
-426z m389 -59 c7 -99 11 -182 9 -184 -3 -4 -249 67 -271 78 -9 5 25 57 115
172 110 142 128 162 131 140 2 -14 9 -107 16 -206z"/>
<path d="M11235 22079 c-332 -50 -535 -258 -535 -547 1 -191 108 -395 258
-490 131 -84 303 -99 476 -42 54 19 134 55 178 81 83 50 186 132 195 155 5 13
-165 514 -174 514 -7 0 -377 -130 -380 -134 -4 -4 47 -148 57 -159 4 -4 50 8
102 27 l96 34 36 -100 c20 -55 36 -105 36 -113 0 -22 -71 -77 -150 -114 -69
-33 -83 -36 -165 -36 -78 0 -97 4 -147 28 -121 60 -217 220 -218 363 0 126 84
256 199 308 106 48 177 52 303 21 25 -6 28 -2 67 80 22 48 39 91 36 95 -15 24
-183 43 -270 29z"/>
<path d="M17072 21418 c-111 -260 -202 -478 -202 -484 0 -15 570 -258 580
-247 4 4 22 41 39 81 l31 73 -43 18 c-23 10 -113 49 -199 86 -87 37 -158 70
-158 74 0 4 74 180 165 391 91 211 165 390 165 396 0 9 -73 44 -165 80 -6 2
-101 -208 -213 -468z"/>
<path d="M9925 21523 c-38 -20 -71 -37 -73 -38 -5 -4 68 -1129 74 -1135 3 -3
45 15 92 40 l87 46 0 59 c0 33 -3 92 -7 130 l-7 70 195 100 c141 72 199 97
209 90 7 -6 52 -43 98 -83 l85 -73 96 48 c53 26 95 52 93 58 -4 10 -828 698
-857 714 -10 6 -37 -2 -85 -26z m362 -457 l52 -50 -131 -68 c-72 -38 -132 -67
-133 -66 -1 2 -10 75 -19 163 -9 88 -19 183 -23 210 l-6 50 104 -94 c57 -52
128 -117 156 -145z"/>
<path d="M18145 21390 c-149 -24 -274 -111 -364 -250 -149 -230 -126 -498 58
-680 137 -135 322 -195 489 -159 88 18 89 22 43 118 -22 46 -42 85 -44 87 -2
2 -25 -3 -51 -12 -97 -33 -208 -3 -290 79 -62 63 -90 127 -94 219 -8 160 83
316 226 384 48 24 70 28 137 28 67 0 89 -4 139 -28 77 -37 129 -91 154 -157
11 -30 24 -54 28 -54 5 1 47 4 93 9 l83 8 -5 35 c-4 19 -19 63 -35 98 -86 183
-350 311 -567 275z"/>
<path d="M13670 20910 c-2903 -139 -5434 -1897 -6582 -4570 -613 -1428 -760
-3096 -406 -4630 117 -508 292 -1020 504 -1476 l77 -164 41 0 c66 0 282 28
388 49 53 11 190 47 305 80 514 147 596 164 778 164 212 1 378 -46 570 -158
280 -164 549 -441 650 -670 85 -192 97 -436 30 -582 -32 -70 -124 -165 -205
-213 -101 -59 -185 -81 -330 -87 -146 -6 -264 14 -394 66 -98 39 -301 155
-521 298 -241 157 -319 193 -475 223 -84 17 -257 29 -316 23 l-53 -6 71 -105
c378 -563 933 -1163 1500 -1619 1102 -889 2455 -1453 3853 -1608 288 -32 369
-36 730 -42 375 -6 604 3 895 32 1580 162 3038 803 4235 1864 227 200 706 693
691 709 -3 2 -29 -1 -58 -7 -74 -16 -270 -14 -354 3 -182 38 -368 135 -764
396 -177 116 -281 158 -465 185 -188 28 -381 14 -570 -40 -87 -25 -193 -74
-455 -210 -130 -67 -263 -117 -364 -134 -86 -16 -241 -13 -315 4 -142 34 -276
135 -354 266 -48 82 -96 230 -103 322 -18 209 98 398 308 502 150 74 219 84
643 95 392 10 585 23 740 46 138 22 195 35 470 114 406 116 490 136 635 151
124 12 275 -2 395 -36 216 -63 474 -232 674 -440 206 -216 306 -415 320 -638
l6 -100 59 84 c52 74 59 89 57 126 -3 69 36 121 123 167 16 8 39 32 51 53 l23
38 -116 0 c-111 0 -120 1 -171 30 -30 16 -63 43 -73 60 -70 116 81 247 287
248 68 0 88 -4 135 -27 30 -16 63 -35 72 -43 15 -13 19 -10 48 39 53 92 245
477 305 613 360 815 567 1671 626 2594 15 239 6 896 -15 1116 -60 612 -168
1137 -342 1669 -315 958 -789 1799 -1458 2581 -145 169 -564 591 -734 739
-909 789 -1945 1335 -3098 1631 -685 176 -1494 259 -2204 225z m715 -400
c1547 -113 2948 -875 3887 -2116 190 -252 357 -524 512 -834 323 -649 496
-1293 547 -2035 13 -190 7 -631 -11 -815 -86 -889 -380 -1720 -865 -2456 -730
-1104 -1875 -1913 -3158 -2229 -444 -109 -825 -155 -1288 -155 -1324 0 -2566
477 -3564 1371 -913 817 -1528 1967 -1705 3186 -71 491 -71 1045 0 1536 193
1331 902 2563 1955 3398 847 672 1844 1063 2925 1148 154 12 603 13 765 1z
m6235 -5380 c78 -604 73 -1206 -15 -1817 -14 -94 -29 -189 -34 -210 -5 -23 -9
438 -9 1177 l0 1215 19 -105 c10 -58 28 -175 39 -260z m-10943 -4615 c65 -19
113 -70 113 -120 0 -46 -44 -96 -112 -126 -76 -34 -212 -34 -281 0 -171 84
-60 260 164 261 36 0 88 -7 116 -15z m10036 -187 c20 -7 51 -26 67 -42 40 -37
42 -100 5 -144 -83 -99 -333 -109 -414 -17 -51 59 -38 120 38 175 68 47 210
61 304 28z m-9639 -73 c73 -19 114 -48 133 -93 20 -48 9 -84 -41 -130 -56 -52
-129 -76 -231 -76 -187 1 -294 116 -204 219 74 84 208 115 343 80z m9991 -176
c114 -21 175 -73 175 -148 0 -28 -9 -43 -44 -77 -59 -56 -127 -79 -237 -79
-75 0 -92 4 -144 30 -106 55 -119 133 -36 208 45 40 127 70 207 76 11 0 47 -4
79 -10z m-9672 -139 c87 -24 126 -47 155 -91 41 -60 12 -135 -74 -185 -157
-92 -399 -61 -457 59 -43 86 36 181 183 221 75 20 113 19 193 -4z m232 -386
c110 -27 165 -80 165 -158 0 -51 -25 -90 -81 -128 -163 -110 -447 -79 -513 56
-16 33 -17 43 -6 79 24 81 128 148 260 166 60 9 85 6 175 -15z m50 -459 c79
-21 148 -60 201 -114 60 -60 59 -87 -6 -168 -84 -104 -233 -162 -385 -149
-212 18 -346 127 -306 249 15 44 97 122 159 150 106 47 231 59 337 32z m3881
-20 c178 -40 340 -170 395 -316 13 -34 22 -89 26 -163 13 -244 -71 -456 -271
-688 -171 -200 -459 -403 -670 -473 -120 -40 -215 -55 -351 -55 -184 0 -222 8
-922 205 -255 71 -452 92 -997 105 -475 11 -567 28 -733 132 -234 147 -301
396 -187 687 99 249 293 381 564 381 191 0 344 -50 626 -202 87 -48 194 -100
236 -117 256 -101 547 -119 815 -51 102 27 197 76 408 211 413 265 557 333
766 358 87 11 210 5 295 -14z m1009 0 c101 -27 172 -71 226 -144 67 -87 66
-115 -1 -182 -96 -96 -248 -142 -397 -120 -197 29 -349 164 -314 280 15 52 44
86 99 118 99 58 267 79 387 48z m-110 -536 c120 -22 226 -89 244 -155 21 -78
-36 -160 -132 -189 -159 -49 -322 -20 -419 73 -91 87 -64 185 66 242 44 20
111 36 162 39 11 0 47 -4 79 -10z m-160 -421 c83 -21 162 -81 180 -138 22 -70
-34 -136 -141 -170 -102 -31 -134 -34 -204 -16 -159 41 -250 139 -207 222 52
101 207 143 372 102z m-334 -354 c93 -28 159 -89 159 -147 0 -35 -46 -86 -97
-109 -211 -93 -508 75 -367 208 63 60 194 81 305 48z m-358 -298 c95 -45 124
-122 72 -185 -39 -45 -104 -66 -207 -65 -76 0 -94 4 -144 30 -133 68 -135 177
-4 232 79 32 201 27 283 -12z"/>
<path d="M12285 18046 c-400 -537 -790 -1205 -1000 -1711 -271 -653 -421
-1429 -386 -1993 50 -789 293 -1403 765 -1924 202 -225 523 -486 788 -644 175
-104 319 -167 524 -229 220 -67 864 -132 1254 -128 258 3 589 50 868 124 394
104 796 353 1225 758 69 66 87 89 87 111 l0 28 -287 0 c-641 1 -1140 77 -1678
256 -736 246 -1412 688 -1922 1257 l-108 121 -5 2068 -5 2068 -120 -162z"/>
<path d="M8586 20682 c-148 -114 -269 -212 -268 -217 2 -18 624 -826 633 -823
22 7 570 431 567 438 -7 18 -99 130 -107 130 -4 0 -100 -70 -211 -155 -111
-85 -204 -155 -205 -155 -6 0 -155 200 -155 208 0 5 62 56 137 113 75 57 159
121 185 142 l48 37 -53 70 c-28 38 -54 69 -57 69 -3 1 -87 -62 -187 -139 -100
-77 -186 -140 -190 -140 -7 1 -134 163 -141 180 -2 5 84 74 190 155 106 80
194 150 196 154 3 9 -96 141 -106 140 -4 0 -128 -94 -276 -207z"/>
<path d="M18808 20482 c-268 -152 -488 -279 -488 -282 0 -3 38 -34 85 -69 l85
-63 102 63 c57 34 108 62 114 62 8 0 306 -217 346 -252 4 -4 -6 -56 -22 -116
-16 -61 -30 -117 -30 -125 0 -15 167 -147 174 -139 3 4 266 1092 266 1102 0 8
-123 97 -134 97 -6 0 -230 -125 -498 -278z m358 -162 c-31 -106 -57 -195 -60
-197 -2 -3 -57 35 -121 83 -79 59 -113 90 -106 97 15 15 335 215 339 212 2 -1
-22 -89 -52 -195z"/>
<path d="M19600 19865 l-365 -365 71 -71 71 -70 273 275 c150 152 274 275 276
273 1 -1 -40 -200 -92 -442 -52 -242 -94 -447 -94 -455 0 -9 38 -53 83 -98
l84 -83 364 366 c200 201 365 372 367 378 1 7 -27 41 -63 77 l-65 65 -269
-269 -269 -268 44 208 c24 115 65 314 91 441 l48 233 -85 85 c-46 47 -89 85
-95 85 -5 0 -174 -164 -375 -365z"/>
<path d="M7968 20069 c-101 -23 -174 -75 -364 -256 -102 -96 -184 -181 -182
-188 2 -7 166 -178 366 -381 l362 -369 161 160 c169 169 224 240 259 332 72
192 37 385 -97 533 -110 121 -238 181 -387 179 -44 -1 -98 -5 -118 -10z m230
-215 c70 -34 152 -117 187 -188 49 -100 33 -218 -44 -330 -35 -50 -170 -189
-180 -184 -3 2 -113 111 -244 244 l-238 241 94 89 c91 86 170 137 240 155 51
13 126 2 185 -27z"/>
<path d="M20725 19339 c-33 -28 -59 -55 -57 -61 2 -6 44 -63 94 -126 75 -95
88 -116 77 -127 -8 -7 -159 -126 -336 -264 -177 -138 -324 -255 -327 -259 -5
-8 98 -144 113 -150 6 -2 450 339 677 519 6 5 42 -33 99 -106 48 -64 93 -119
99 -125 8 -6 34 8 78 43 37 29 66 55 65 60 -5 18 -502 647 -511 646 -6 0 -38
-23 -71 -50z"/>
<path d="M6812 18894 c-28 -43 -49 -81 -47 -84 2 -4 143 -101 313 -216 170
-115 309 -209 308 -210 0 0 -201 3 -446 8 -245 4 -450 6 -456 4 -16 -6 -144
-198 -138 -207 7 -13 836 -571 853 -576 18 -4 117 140 107 156 -4 5 -148 105
-321 222 -173 117 -314 214 -312 214 1 1 135 -1 297 -6 162 -4 372 -8 466 -8
l171 -1 62 93 c33 51 61 97 61 102 -1 10 -823 569 -853 581 -9 3 -31 -22 -65
-72z"/>
<path d="M20970 18304 c-305 -47 -556 -87 -558 -88 -1 -2 23 -44 54 -94 48
-76 61 -91 78 -87 49 12 230 44 231 42 21 -32 226 -364 228 -369 1 -3 -31 -52
-71 -108 l-73 -102 37 -62 c21 -33 47 -76 60 -94 l22 -33 25 33 c71 97 611
885 614 899 4 15 -73 150 -86 148 -3 0 -256 -39 -561 -85z m289 -261 c-61 -82
-119 -156 -129 -166 -16 -18 -20 -13 -88 95 -39 62 -72 120 -74 127 -2 11 41
23 182 52 102 20 193 37 203 38 13 1 -15 -43 -94 -146z"/>
<path d="M5762 17708 l-42 -91 66 -114 c37 -63 70 -111 74 -106 4 4 19 35 34
68 l26 60 -49 135 c-27 74 -53 135 -57 137 -5 1 -28 -39 -52 -89z"/>
<path d="M6300 17759 c-172 -29 -325 -168 -402 -364 -43 -110 -51 -259 -19
-363 42 -138 142 -251 286 -323 227 -112 459 -82 622 81 227 227 244 585 37
794 -131 133 -347 206 -524 175z m252 -236 c126 -60 216 -172 233 -291 19
-140 -85 -310 -220 -361 -50 -19 -74 -22 -145 -19 -152 8 -279 88 -342 216
-28 57 -33 76 -33 142 0 68 4 85 38 153 69 139 166 199 317 194 72 -2 96 -7
152 -34z"/>
<path d="M21485 17445 c-253 -118 -461 -220 -463 -228 -4 -17 65 -167 76 -167
5 0 58 23 118 51 60 28 146 68 192 90 l82 38 25 -49 c14 -27 25 -54 25 -59 0
-5 -65 -98 -145 -206 -113 -152 -144 -201 -139 -217 12 -38 86 -188 93 -188 4
0 72 96 151 214 l145 213 52 -47 c62 -56 118 -75 204 -67 107 9 211 77 250
162 25 54 25 174 1 252 -26 82 -185 423 -197 423 -5 -1 -217 -97 -470 -215z
m452 -132 c33 -70 48 -115 51 -155 4 -55 3 -59 -30 -92 -63 -63 -145 -58 -197
14 -30 42 -117 218 -110 223 10 8 225 106 232 107 5 0 29 -44 54 -97z"/>
<path d="M21865 16565 c-258 -96 -474 -176 -478 -177 -15 -6 58 -183 74 -180
17 3 960 350 965 355 2 2 -10 42 -28 90 -22 61 -36 87 -47 86 -9 0 -227 -79
-486 -174z"/>
<path d="M5591 16595 c-17 -47 -31 -89 -31 -93 0 -8 950 -352 973 -352 14 0
34 46 67 151 l8 26 -482 173 c-264 95 -486 175 -492 177 -7 3 -25 -32 -43 -82z"/>
<path d="M22010 16139 c-267 -78 -486 -142 -487 -143 -2 -1 36 -139 84 -305
l86 -303 29 6 c77 15 138 38 138 52 0 8 -25 103 -56 211 -36 126 -52 198 -46
202 6 3 193 58 417 121 l406 115 -6 25 c-25 104 -47 160 -63 159 -9 0 -235
-63 -502 -140z"/>
<path d="M5488 16180 c-50 -43 -109 -147 -127 -224 -13 -54 -16 -187 -5 -232
19 -79 80 -161 145 -194 20 -11 66 -25 103 -31 127 -24 213 27 326 189 95 137
132 172 184 172 105 0 158 -126 102 -245 -23 -51 -78 -108 -115 -120 -12 -3
-21 -11 -21 -17 0 -22 86 -168 99 -168 45 0 140 95 184 184 65 133 76 302 25
401 -55 105 -149 165 -274 173 -125 8 -195 -39 -309 -208 -100 -148 -144 -178
-211 -146 -68 32 -90 106 -58 200 15 45 67 108 106 131 16 9 12 18 -34 93 -28
45 -56 82 -63 82 -7 0 -32 -18 -57 -40z"/>
<path d="M22226 15364 c-275 -51 -501 -95 -503 -98 -4 -4 107 -608 113 -615 6
-7 174 20 174 28 0 3 -18 100 -40 215 -22 115 -38 211 -37 213 2 1 192 38 423
81 l419 79 -2 42 c-3 68 -23 151 -36 150 -7 0 -237 -43 -511 -95z"/>
<path d="M5217 15228 c-9 -50 -16 -93 -14 -94 6 -5 1020 -195 1023 -191 10 9
37 177 31 183 -8 8 -968 193 -1003 194 -18 0 -23 -10 -37 -92z"/>
<path d="M5126 14748 c-3 -35 -8 -99 -12 -143 l-6 -81 346 -164 c190 -91 343
-166 339 -167 -5 -2 -167 -50 -362 -107 -194 -57 -357 -110 -361 -116 -10 -16
-25 -269 -17 -277 7 -7 1027 -86 1033 -81 2 3 5 45 6 94 l3 89 -397 30 c-218
17 -399 33 -402 36 -3 3 182 58 411 122 229 64 417 118 418 119 1 2 5 33 7 70
l6 66 -407 187 c-341 156 -398 186 -356 181 169 -17 776 -59 781 -54 3 4 9 45
11 92 l6 84 -54 6 c-53 7 -947 76 -973 76 -9 0 -16 -20 -20 -62z"/>
<path d="M21851 14584 c0 -33 4 -81 7 -107 l7 -49 115 -36 c63 -20 117 -37
119 -39 5 -4 30 -317 30 -391 l1 -54 -111 -51 -111 -52 6 -109 c3 -60 8 -111
10 -113 2 -2 230 112 506 254 l501 258 -4 83 c-3 46 -7 86 -10 88 -6 6 -1005
361 -1042 370 -25 6 -25 5 -24 -52z m644 -353 l190 -59 -65 -30 c-36 -16 -121
-55 -189 -86 -67 -32 -125 -55 -128 -52 -5 5 -22 187 -23 249 0 23 5 37 13 37
6 0 98 -27 202 -59z"/>
<path d="M21902 13298 c-7 -106 -12 -222 -12 -258 1 -251 170 -471 398 -519
75 -16 208 -14 275 4 178 46 304 179 351 370 13 52 51 513 43 521 -1 2 -210
17 -462 33 -253 17 -487 33 -521 36 l-60 5 -12 -192z m513 -38 c154 -11 297
-20 318 -20 l38 0 -6 -87 c-10 -139 -24 -203 -56 -270 -56 -117 -148 -169
-299 -167 -204 1 -323 123 -337 345 -3 47 -3 115 1 152 7 64 9 67 34 67 15 0
153 -9 307 -20z"/>
<path d="M5530 13410 c-226 -29 -402 -179 -451 -385 -17 -73 -15 -238 5 -315
50 -198 184 -336 373 -385 67 -18 220 -20 295 -4 149 31 296 142 355 269 42
88 56 156 55 264 -1 363 -273 602 -632 556z m251 -232 c110 -50 176 -135 199
-256 45 -231 -156 -430 -412 -409 -165 14 -285 121 -318 281 -36 175 63 339
239 398 83 27 217 21 292 -14z"/>
<path d="M22123 12350 c-258 -46 -433 -275 -433 -564 0 -155 42 -265 141 -371
205 -219 588 -233 791 -29 131 131 197 365 157 556 -39 186 -193 340 -391 392
-75 19 -201 27 -265 16z m262 -231 c83 -31 173 -121 204 -204 60 -159 -21
-363 -173 -434 -184 -85 -429 -3 -517 174 -21 43 -24 64 -24 150 0 89 3 106
27 151 50 95 111 147 211 180 61 20 197 12 272 -17z"/>
<path d="M6014 12233 c-55 -130 -57 -137 -39 -148 107 -64 156 -140 163 -255
3 -60 0 -87 -18 -132 -90 -239 -440 -317 -617 -139 -67 67 -98 141 -98 231 0
63 4 83 28 124 15 27 27 50 27 51 0 2 -32 31 -71 65 l-71 61 -24 -35 c-124
-182 -83 -478 91 -651 65 -66 152 -115 235 -134 66 -15 216 -13 289 4 147 35
295 144 355 262 75 149 75 360 0 518 -41 89 -172 215 -221 215 -7 0 -20 -17
-29 -37z"/>
<path d="M2075 5543 c-732 -64 -1354 -420 -1724 -988 -181 -277 -290 -581
-337 -935 -23 -180 -15 -576 15 -745 73 -412 251 -779 524 -1087 336 -376 822
-630 1372 -714 95 -15 178 -19 395 -19 290 0 371 7 585 52 341 71 723 257 974
475 46 40 89 80 94 89 9 14 -67 110 -413 525 -232 280 -431 517 -440 528 -17
18 -20 16 -84 -52 -109 -115 -250 -203 -388 -242 -106 -31 -306 -38 -418 -16
-444 90 -729 506 -680 991 34 335 202 594 465 720 150 71 194 80 395 79 160 0
183 -3 263 -27 158 -49 282 -123 378 -230 26 -29 50 -47 57 -43 17 10 867
1036 870 1050 2 7 -21 33 -50 58 -337 285 -836 481 -1343 528 -102 9 -417 11
-510 3z"/>
<path d="M5585 5398 c-24 -59 -1637 -4152 -1651 -4190 l-13 -38 764 0 763 0
104 310 103 310 672 0 671 0 16 -43 c9 -23 59 -161 110 -307 l94 -265 786 -3
786 -2 -20 52 c-11 29 -384 987 -829 2128 l-809 2075 -767 3 -766 2 -14 -32z
m924 -1987 c89 -271 161 -497 161 -502 0 -5 -146 -9 -330 -9 -198 0 -330 4
-330 9 0 11 319 981 327 994 3 5 6 7 8 5 2 -2 76 -225 164 -497z"/>
<path d="M10521 5323 c-285 -720 -1625 -4122 -1629 -4136 -4 -16 37 -17 757
-17 l761 0 9 23 c4 12 52 151 106 310 l97 287 672 0 671 0 110 -310 110 -310
783 0 c430 0 782 3 782 7 0 4 -372 963 -827 2130 l-828 2123 -766 0 -766 0
-42 -107z m954 -1911 c86 -266 159 -490 162 -498 4 -12 -47 -14 -332 -14 -266
0 -336 3 -333 13 3 6 79 233 169 504 90 271 167 489 170 485 4 -4 77 -225 164
-490z"/>
<path d="M14040 3300 l0 -2130 675 0 675 0 -6 157 c-13 356 -62 2238 -58 2242
2 3 8 0 13 -5 7 -7 593 -1800 748 -2286 l34 -108 512 0 512 0 395 1195 c251
762 399 1195 407 1195 17 0 17 42 -7 -1255 -11 -588 -20 -1085 -20 -1102 l0
-33 700 0 700 0 0 2130 0 2130 -969 0 -968 0 -35 -117 c-19 -65 -169 -580
-334 -1145 -164 -566 -303 -1028 -309 -1028 -5 0 -183 515 -395 1145 l-385
1145 -942 0 -943 0 0 -2130z"/>
<path d="M19750 4820 l0 -610 520 0 520 0 0 -1520 0 -1520 720 0 720 0 0 1520
0 1520 525 0 525 0 0 610 0 610 -1765 0 -1765 0 0 -610z"/>
<path d="M23710 3300 l0 -2130 720 0 720 0 0 805 0 805 575 0 575 0 0 -805 0
-805 720 0 720 0 0 2130 0 2130 -720 0 -720 0 0 -720 0 -720 -580 0 -580 0 0
720 0 720 -715 0 -715 0 0 -2130z"/>
<path d="M6198 750 c-237 -42 -366 -288 -276 -527 26 -71 104 -155 176 -190
79 -39 220 -45 304 -14 51 20 138 88 138 109 0 5 -14 19 -31 31 l-31 23 -41
-41 c-51 -52 -125 -76 -200 -67 -251 34 -344 365 -150 536 99 86 231 92 323
13 43 -37 64 -38 95 -3 18 20 18 21 -15 55 -59 61 -188 94 -292 75z"/>
<path d="M11174 750 c-67 -10 -165 -62 -210 -113 -20 -22 -48 -65 -63 -96 -23
-50 -26 -68 -26 -166 0 -101 3 -115 29 -169 37 -76 101 -140 174 -174 51 -24
68 -27 172 -27 112 0 117 1 178 34 75 41 125 94 161 170 23 50 26 68 26 171 0
110 -1 118 -32 176 -76 146 -233 220 -409 194z m192 -98 c91 -46 146 -122 161
-223 33 -212 -127 -385 -326 -351 -178 30 -282 212 -226 398 27 93 108 172
198 195 52 13 149 4 193 -19z"/>
<path d="M25889 750 c-112 -20 -213 -95 -265 -197 -27 -54 -29 -66 -29 -173 0
-103 3 -121 26 -171 36 -76 86 -129 161 -170 61 -33 66 -34 178 -34 126 0 161
11 235 76 43 38 44 51 4 80 l-32 22 -19 -26 c-29 -39 -95 -75 -154 -83 -102
-13 -218 43 -269 130 -36 61 -46 100 -46 179 0 114 59 215 152 263 98 49 192
41 276 -23 l45 -34 33 22 c41 29 35 47 -33 90 -73 46 -174 65 -263 49z"/>
<path d="M150 375 l0 -365 40 0 40 0 0 298 0 297 124 -295 c110 -262 126 -295
148 -298 22 -3 31 16 150 300 l127 303 1 -303 0 -303 38 3 37 3 3 363 2 363
-61 -3 -61 -3 -118 -283 -117 -284 -119 286 -118 286 -58 0 -58 0 0 -365z"/>
<path d="M1822 462 l3 -278 30 -59 c44 -87 100 -119 213 -124 109 -4 153 9
207 64 69 68 75 102 75 412 l0 263 -39 0 -40 0 -3 -267 c-3 -264 -3 -269 -28
-311 -82 -144 -291 -107 -329 58 -6 25 -11 152 -11 283 l0 237 -41 0 -40 0 3
-278z"/>
<path d="M3315 727 c-3 -6 -4 -170 -3 -362 l3 -350 40 0 40 0 5 293 5 293 189
-273 c104 -150 198 -283 209 -295 15 -17 32 -23 64 -23 l43 0 0 365 0 365 -40
0 -40 0 -2 -293 -3 -294 -205 293 -205 293 -48 1 c-29 0 -49 -5 -52 -13z"/>
<path d="M4890 374 l0 -365 38 3 37 3 3 363 2 362 -40 0 -40 0 0 -366z"/>
<path d="M7442 378 l3 -363 38 -3 37 -3 0 365 0 366 -40 0 -40 0 2 -362z"/>
<path d="M8500 376 l0 -366 40 0 40 0 0 169 0 169 118 4 c133 3 180 20 219 77
44 66 39 186 -10 240 -47 51 -100 65 -259 69 l-148 4 0 -366z m271 274 c101
-28 118 -159 26 -206 -20 -11 -66 -19 -124 -22 l-93 -5 0 122 0 121 78 0 c42
0 93 -5 113 -10z"/>
<path d="M9865 727 c-3 -6 -4 -170 -3 -362 l3 -350 38 -3 37 -3 0 365 0 366
-35 0 c-20 0 -38 -6 -40 -13z"/>
<path d="M13610 376 l0 -366 123 0 c217 0 320 32 406 125 68 74 86 122 86 240
0 89 -3 106 -28 157 -36 73 -119 150 -195 179 -48 19 -82 23 -224 27 l-168 4
0 -366z m328 269 c149 -44 236 -208 188 -353 -27 -81 -66 -126 -143 -164 -62
-30 -76 -33 -180 -37 l-113 -3 0 286 0 286 98 0 c59 0 119 -6 150 -15z"/>
<path d="M15155 727 c-3 -6 -4 -170 -3 -362 l3 -350 230 0 230 0 3 38 3 37
-190 0 -191 0 0 130 0 130 170 0 170 0 0 40 0 40 -170 0 -170 0 0 115 0 115
185 0 185 0 0 40 0 40 -225 0 c-172 0 -227 -3 -230 -13z"/>
<path d="M17530 700 l0 -40 115 0 115 0 2 -322 3 -323 40 0 40 0 3 323 2 322
121 0 120 0 -3 38 -3 37 -277 3 -278 2 0 -40z"/>
<path d="M18980 374 l0 -365 38 3 37 3 3 363 2 362 -40 0 -40 0 0 -366z"/>
<path d="M19960 700 l0 -40 200 0 c110 0 200 -2 200 -4 0 -3 -90 -131 -200
-286 -179 -251 -200 -285 -200 -321 l0 -39 260 0 260 0 0 40 0 40 -206 2 -205
3 205 289 c168 237 206 296 206 323 l0 33 -260 0 -260 0 0 -40z"/>
<path d="M21441 388 c-84 -194 -152 -357 -152 -363 0 -5 20 -11 44 -13 l44 -3
39 96 39 95 180 -2 179 -3 39 -92 39 -93 44 0 c29 0 44 4 44 13 0 6 -68 171
-152 364 l-153 353 -41 0 -40 0 -153 -352z m272 50 l66 -158 -145 0 c-80 0
-144 4 -142 8 116 285 142 343 149 326 4 -11 37 -90 72 -176z"/>
<path d="M22680 731 c0 -6 59 -99 130 -209 l130 -198 0 -158 0 -157 43 3 42 3
3 157 3 158 124 190 c69 104 128 196 131 205 5 12 -3 15 -44 15 l-49 0 -83
-132 c-46 -73 -93 -148 -105 -166 l-22 -32 -104 165 -104 165 -47 0 c-27 0
-48 -4 -48 -9z"/>
<path d="M24142 463 c4 -316 8 -334 86 -405 53 -48 100 -61 205 -57 76 4 90 7
128 34 50 35 84 82 99 134 5 20 10 155 10 304 l0 267 -40 0 -40 0 0 -257 c0
-250 -1 -260 -24 -309 -65 -139 -261 -134 -322 8 -16 37 -19 79 -22 301 l-4
257 -40 0 -40 0 4 -277z"/>
<path d="M27342 723 c-26 -49 -302 -692 -302 -702 0 -8 16 -11 46 -9 l46 3 38
90 37 90 179 3 179 2 40 -92 40 -93 45 0 c35 0 44 3 42 15 -2 8 -71 171 -154
363 l-151 347 -38 0 c-26 0 -41 -5 -47 -17z m118 -268 c34 -82 64 -156 67
-162 4 -10 -28 -13 -140 -13 l-145 0 71 170 c38 94 74 167 78 163 4 -4 35 -75
69 -158z"/>
</g>
</svg>
